<?xml version="1.0" standalone="no"?>
<!DOCTYPE svg PUBLIC "-//W3C//DTD SVG 20010904//EN"
 "http://www.w3.org/TR/2001/REC-SVG-20010904/DTD/svg10.dtd">
<svg version="1.0" xmlns="http://www.w3.org/2000/svg"
 width="842.000000pt" height="842.000000pt" viewBox="0 0 842.000000 842.000000"
 preserveAspectRatio="xMidYMid meet">
<metadata>
Created by potrace 1.14, written by Peter Selinger 2001-2017
</metadata>
<g transform="translate(0.000000,842.000000) scale(0.100000,-0.100000)"
fill="#000000" stroke="none">
<path d="M4028 6504 c-2 -1 -37 -6 -78 -9 -98 -8 -136 -12 -250 -31 -52 -8
-106 -17 -120 -19 -112 -18 -450 -107 -515 -136 -11 -4 -51 -20 -90 -34 -211
-76 -475 -220 -705 -382 -61 -43 -195 -159 -267 -232 -87 -87 -97 -99 -168
-191 -28 -35 -58 -73 -67 -84 -10 -11 -18 -25 -18 -31 0 -7 -9 -20 -20 -30
-11 -10 -17 -22 -14 -26 3 -5 1 -9 -4 -9 -6 0 -17 -17 -26 -37 -8 -21 -26 -58
-40 -83 -50 -93 -91 -208 -121 -335 -26 -116 -35 -266 -23 -417 l5 -68 -31 -1
c-17 0 -47 -2 -66 -2 -40 -2 -37 18 -25 -187 4 -69 9 -161 10 -205 6 -119 14
-251 21 -330 4 -38 8 -106 10 -150 3 -75 5 -116 19 -370 14 -269 9 -241 61
-319 139 -208 376 -429 627 -585 96 -60 353 -188 393 -196 6 -2 27 -9 45 -18
71 -30 90 -37 108 -37 13 0 68 66 167 198 81 108 149 199 151 201 2 2 5 2 7 0
4 -4 14 -161 15 -240 1 -33 4 -36 49 -52 26 -9 67 -21 92 -28 25 -7 50 -14 55
-15 6 -2 23 -6 39 -9 16 -3 33 -8 38 -11 4 -3 18 -7 30 -9 13 -3 57 -11 98
-20 110 -21 131 -25 175 -31 22 -3 68 -9 101 -14 195 -31 738 -34 924 -5 62 9
108 15 149 20 24 3 89 15 145 26 55 11 112 23 125 25 14 3 28 7 31 9 4 2 22 7
41 10 120 21 534 165 602 210 12 8 25 14 30 14 13 1 148 71 251 129 l98 57 -6
118 c-3 64 -4 117 -1 117 2 0 10 -6 17 -12 24 -23 108 -78 118 -78 13 0 47 20
71 40 9 8 34 26 54 40 20 14 47 34 60 45 13 11 43 36 67 55 120 97 326 331
406 460 35 57 111 216 138 287 84 222 102 394 79 743 -4 63 -8 141 -9 172 0
32 -3 58 -6 58 -3 0 -5 33 -6 73 0 88 -13 281 -19 299 -2 7 -6 27 -9 43 -10
69 -43 188 -66 240 -5 11 -21 49 -36 85 -43 101 -123 229 -208 335 -55 69
-230 242 -295 292 l-55 41 -63 -44 c-35 -24 -66 -44 -69 -44 -3 0 -12 -7 -21
-15 -8 -9 -17 -14 -20 -12 -2 3 -6 46 -8 96 -2 64 -8 95 -19 106 -8 8 -17 15
-21 15 -3 0 -15 8 -25 18 -42 39 -367 222 -396 222 -5 0 -15 5 -22 12 -6 6
-18 13 -26 14 -12 2 -31 10 -111 45 -89 40 -485 151 -585 164 -19 3 -46 7 -60
10 -24 5 -74 13 -135 20 -16 2 -47 6 -67 10 -20 3 -69 9 -110 12 -80 6 -595
12 -600 7z"/>
</g>
</svg>
